<svg width="32" height="30" viewBox="0 0 32 30" fill="none" xmlns="http://www.w3.org/2000/svg">
<path d="M17.3593 1.11703L9.42441 9.29412C8.89447 9.84024 8.59369 10.593 8.59369 11.3753V26.1206C8.59369 27.7442 9.88274 29.0726 11.4583 29.0726H24.3488C25.4946 29.0726 26.5259 28.3642 26.9842 27.2867L31.6534 16.0542C32.8565 13.1317 30.7797 9.88452 27.7003 9.88452H19.6079L20.9686 3.1244C21.1118 2.3864 20.897 1.63363 20.3814 1.10227C19.5363 0.246182 18.19 0.246182 17.3593 1.11703ZM2.86456 29.0726C4.44007 29.0726 5.72913 27.7442 5.72913 26.1206V14.3126C5.72913 12.6889 4.44007 11.3605 2.86456 11.3605C1.28905 11.3605 0 12.6889 0 14.3126V26.1206C0 27.7442 1.28905 29.0726 2.86456 29.0726Z" fill="#64D577"/>
</svg>
