<svg width="50" height="37" viewBox="0 0 50 37" fill="none" xmlns="http://www.w3.org/2000/svg">
<path d="M7.6485 0C7.64715 0 7.64564 0 7.64429 0C7.17139 0 6.72661 0.177284 6.39075 0.499471C6.05119 0.82522 5.86415 1.25896 5.86415 1.7207V27.5224C5.86415 28.4685 6.66769 29.2402 7.65557 29.2426C11.8202 29.2522 18.7977 30.0869 23.6112 34.9312V7.92904C23.6112 7.60831 23.526 7.30701 23.3652 7.05768C19.4145 0.939037 11.8226 0.00939037 7.6485 0Z" fill="#7264D5"/>
<path d="M44.136 27.5225V1.72071C44.136 1.25896 43.949 0.82522 43.6094 0.499471C43.2736 0.177284 42.8284 0 42.356 0C42.3545 0 42.353 0 42.3517 0C38.1777 0.00955228 30.5858 0.939199 26.635 7.05784C26.4742 7.30717 26.3892 7.60847 26.3892 7.9292V34.9312C31.2026 30.0869 38.1801 29.2522 42.3448 29.2426C43.3325 29.2402 44.136 28.4685 44.136 27.5225Z" fill="#7264D5"/>
<path d="M48.2111 5.9502H46.9138V27.5223C46.9138 29.9381 44.8672 31.9079 42.3513 31.9139C38.8188 31.922 32.9942 32.5863 28.8691 36.341C36.0035 34.6611 43.5244 35.7531 47.8106 36.6925C48.3458 36.8097 48.8988 36.6886 49.3276 36.3599C49.7549 36.0321 50 35.542 50 35.016V7.67058C50.0002 6.72199 49.1975 5.9502 48.2111 5.9502Z" fill="#7264D5"/>
<path d="M3.08621 27.5223V5.9502H1.7889C0.802696 5.9502 0 6.72199 0 7.67058V35.0155C0 35.5417 0.245119 36.0316 0.672393 36.3595C1.10085 36.688 1.65337 36.8096 2.1894 36.692C6.47561 35.7525 13.9967 34.6606 21.1307 36.3405C17.0058 32.586 11.1812 31.9219 7.64868 31.9138C5.13301 31.9079 3.08621 29.9381 3.08621 27.5223Z" fill="#7264D5"/>
</svg>
